<?xml version="1.0" encoding="UTF-8"?>
<svg width="64" height="64" viewBox="0 0 64 64" fill="none" xmlns="http://www.w3.org/2000/svg">
  <path d="M32 8C32 8 36 12 36 20C36 28 32 32 32 32C32 32 28 28 28 20C28 12 32 8 32 8Z" fill="#FFD700"/>
  <path d="M32 32C32 32 40 36 48 36C56 36 60 32 60 32C60 32 56 28 48 28C40 28 32 32 32 32Z" fill="#FFD700"/>
  <path d="M32 32C32 32 40 28 48 28C56 28 60 32 60 32C60 32 56 36 48 36C40 36 32 32 32 32Z" fill="#FFD700"/>
  <path d="M32 32C32 32 36 40 36 48C36 56 32 60 32 60C32 60 28 56 28 48C28 40 32 32 32 32Z" fill="#FFD700"/>
  <path d="M32 32C32 32 28 40 28 48C28 56 32 60 32 60C32 60 36 56 36 48C36 40 32 32 32 32Z" fill="#FFD700"/>
  <path d="M32 32C32 32 24 36 16 36C8 36 4 32 4 32C4 32 8 28 16 28C24 28 32 32 32 32Z" fill="#FFD700"/>
  <path d="M32 32C32 32 24 28 16 28C8 28 4 32 4 32C4 32 8 36 16 36C24 36 32 32 32 32Z" fill="#FFD700"/>
</svg> 